<svg width="20" height="20" viewBox="0 0 20 20" fill="none" xmlns="http://www.w3.org/2000/svg">
<path d="M6.21005 2.2599C6.52235 1.46805 7.64301 1.46805 7.95532 2.2599L8.92311 4.71378C9.01846 4.95554 9.20983 5.14691 9.45158 5.24225L11.9055 6.21005C12.6973 6.52235 12.6973 7.64301 11.9055 7.95532L9.45158 8.92311C9.20983 9.01846 9.01846 9.20983 8.92311 9.45158L7.95531 11.9055C7.64301 12.6973 6.52235 12.6973 6.21005 11.9055L5.24225 9.45158C5.14691 9.20983 4.95554 9.01846 4.71378 8.92311L2.2599 7.95531C1.46805 7.64301 1.46805 6.52235 2.2599 6.21005L4.71378 5.24225C4.95554 5.14691 5.14691 4.95554 5.24225 4.71378L6.21005 2.2599Z" fill="white"/>
<path d="M14.1044 11.1604C14.2761 10.7252 14.8919 10.7252 15.0635 11.1604L15.8141 13.0634C15.8665 13.1963 15.9717 13.3015 16.1045 13.3539L18.0076 14.1044C18.4428 14.2761 18.4428 14.8919 18.0076 15.0635L16.1045 15.8141C15.9717 15.8665 15.8665 15.9717 15.8141 16.1045L15.0635 18.0076C14.8919 18.4428 14.2761 18.4428 14.1044 18.0076L13.3539 16.1045C13.3015 15.9717 13.1963 15.8665 13.0634 15.8141L11.1604 15.0635C10.7252 14.8919 10.7252 14.2761 11.1604 14.1044L13.0634 13.3539C13.1963 13.3015 13.3015 13.1963 13.3539 13.0634L14.1044 11.1604Z" fill="white"/>
</svg>
